<?xml version="1.0" encoding="utf-8"?>
<!-- Generated by Mocodo 4.3.2 -->
<svg width="770" height="676" viewBox="0 0 770 676" xmlns="http://www.w3.org/2000/svg">
<rect x="0" y="0" width="770" height="676" fill="#f7f7f7" stroke="none" stroke-width="0"/>

<!-- Association CREER -->
<g>
	<line x1="61" y1="211" x2="61" y2="85" stroke="#9970ab" stroke-width="2"/>
	<line x1="202" y1="85" x2="61" y2="85" stroke="#9970ab" stroke-width="2"/>
	<g>
		<path d="M71 60 a14 14 90 0 1 14 14 V85 h-48 V74 a14 14 90 0 1 14 -14" fill="#c2a5cf" stroke="#c2a5cf" stroke-width="0"/>
		<path d="M85 85 v11 a14 14 90 0 1 -14 14 H51 a14 14 90 0 1 -14 -14 V85 H48" fill="#e7d4e8" stroke="#e7d4e8" stroke-width="0"/>
		<rect x="37" y="60" width="48" height="50" fill="none" rx="14" stroke="#9970ab" stroke-width="2"/>
		<line x1="37" y1="85" x2="85" y2="85" stroke="#9970ab" stroke-width="1"/>
		<text x="44" y="77.75" fill="#000000" font-family="Verdana" font-size="12">Créer</text>
	</g>
	<text x="66" y="186" fill="#1b7837" font-family="Verdana" font-size="12">1,N</text>
	<text x="100" y="102" fill="#1b7837" font-family="Verdana" font-size="12">0,N</text>
</g>

<!-- Association CONCERNER_MENU -->
<g>
	<line x1="202" y1="85" x2="202" y2="211" stroke="#9970ab" stroke-width="2"/>
	<line x1="202" y1="337" x2="202" y2="211" stroke="#9970ab" stroke-width="2"/>
	<g>
		<path d="M247 186 a14 14 90 0 1 14 14 V211 h-118 V200 a14 14 90 0 1 14 -14" fill="#c2a5cf" stroke="#c2a5cf" stroke-width="0"/>
		<path d="M261 211 v11 a14 14 90 0 1 -14 14 H157 a14 14 90 0 1 -14 -14 V211 H118" fill="#e7d4e8" stroke="#e7d4e8" stroke-width="0"/>
		<rect x="143" y="186" width="118" height="50" fill="none" rx="14" stroke="#9970ab" stroke-width="2"/>
		<line x1="143" y1="211" x2="261" y2="211" stroke="#9970ab" stroke-width="1"/>
		<text x="150" y="203.75" fill="#000000" font-family="Verdana" font-size="12">Concerner_menu</text>
	</g>
	<text x="207" y="178" fill="#1b7837" font-family="Verdana" font-size="12">0,N</text>
	<text x="207" y="253" fill="#1b7837" font-family="Verdana" font-size="12">0,N</text>
</g>

<!-- Association ETRE_DEVENU -->
<g>
	<line x1="594" y1="211" x2="467" y2="211" stroke="#9970ab" stroke-width="2"/>
	<line x1="467" y1="337" x2="467" y2="211" stroke="#9970ab" stroke-width="2"/>
	<g>
		<path d="M497 186 a14 14 90 0 1 14 14 V211 h-88 V200 a14 14 90 0 1 14 -14" fill="#c2a5cf" stroke="#c2a5cf" stroke-width="0"/>
		<path d="M511 211 v11 a14 14 90 0 1 -14 14 H437 a14 14 90 0 1 -14 -14 V211 H88" fill="#e7d4e8" stroke="#e7d4e8" stroke-width="0"/>
		<rect x="423" y="186" width="88" height="50" fill="none" rx="14" stroke="#9970ab" stroke-width="2"/>
		<line x1="423" y1="211" x2="511" y2="211" stroke="#9970ab" stroke-width="1"/>
		<text x="430" y="203.75" fill="#000000" font-family="Verdana" font-size="12">Etre devenu</text>
	</g>
	<text x="517" y="228" fill="#1b7837" font-family="Verdana" font-size="12">1,1</text>
	<text x="472" y="278" fill="#1b7837" font-family="Verdana" font-size="12">0,N</text>
</g>

<!-- Association ADMINISTRER -->
<g>
	<line x1="61" y1="211" x2="61" y2="337" stroke="#9970ab" stroke-width="2"/>
	<line x1="202" y1="506" x2="61" y2="337" stroke="#9970ab" stroke-width="2"/>
	<g>
		<path d="M90 312 a14 14 90 0 1 14 14 V337 h-86 V326 a14 14 90 0 1 14 -14" fill="#c2a5cf" stroke="#c2a5cf" stroke-width="0"/>
		<path d="M104 337 v11 a14 14 90 0 1 -14 14 H32 a14 14 90 0 1 -14 -14 V337 H86" fill="#e7d4e8" stroke="#e7d4e8" stroke-width="0"/>
		<rect x="18" y="312" width="86" height="50" fill="none" rx="14" stroke="#9970ab" stroke-width="2"/>
		<line x1="18" y1="337" x2="104" y2="337" stroke="#9970ab" stroke-width="1"/>
		<text x="26" y="329.75" fill="#000000" font-family="Verdana" font-size="12">Administrer</text>
	</g>
	<text x="66" y="245" fill="#1b7837" font-family="Verdana" font-size="12">1,N</text>
	<text x="120" y="449.71" fill="#1b7837" font-family="Verdana" font-size="12">1,1</text>
</g>

<!-- Association CONCERNER -->
<g>
	<line x1="467" y1="337" x2="333" y2="337" stroke="#9970ab" stroke-width="2"/>
	<line x1="202" y1="506" x2="333" y2="337" stroke="#9970ab" stroke-width="2"/>
	<g>
		<path d="M358 312 a14 14 90 0 1 14 14 V337 h-78 V326 a14 14 90 0 1 14 -14" fill="#c2a5cf" stroke="#c2a5cf" stroke-width="0"/>
		<path d="M372 337 v11 a14 14 90 0 1 -14 14 H308 a14 14 90 0 1 -14 -14 V337 H78" fill="#e7d4e8" stroke="#e7d4e8" stroke-width="0"/>
		<rect x="294" y="312" width="78" height="50" fill="none" rx="14" stroke="#9970ab" stroke-width="2"/>
		<line x1="294" y1="337" x2="372" y2="337" stroke="#9970ab" stroke-width="1"/>
		<text x="302" y="329.75" fill="#000000" font-family="Verdana" font-size="12">Concerner</text>
	</g>
	<text x="378" y="354" fill="#1b7837" font-family="Verdana" font-size="12">1,1</text>
	<text x="233.52" y="430" fill="#1b7837" font-family="Verdana" font-size="12">0,N</text>
</g>

<!-- Association FAIRE -->
<g>
	<line x1="705" y1="337" x2="594" y2="337" stroke="#9970ab" stroke-width="2"/>
	<line x1="467" y1="337" x2="594" y2="337" stroke="#9970ab" stroke-width="2"/>
	<g>
		<path d="M603 312 a14 14 90 0 1 14 14 V337 h-46 V326 a14 14 90 0 1 14 -14" fill="#c2a5cf" stroke="#c2a5cf" stroke-width="0"/>
		<path d="M617 337 v11 a14 14 90 0 1 -14 14 H585 a14 14 90 0 1 -14 -14 V337 H46" fill="#e7d4e8" stroke="#e7d4e8" stroke-width="0"/>
		<rect x="571" y="312" width="46" height="50" fill="none" rx="14" stroke="#9970ab" stroke-width="2"/>
		<line x1="571" y1="337" x2="617" y2="337" stroke="#9970ab" stroke-width="1"/>
		<text x="579" y="329.75" fill="#000000" font-family="Verdana" font-size="12">Faire</text>
	</g>
	<text x="622" y="354" fill="#1b7837" font-family="Verdana" font-size="12">0,N</text>
	<text x="535" y="354" fill="#1b7837" font-family="Verdana" font-size="12">1,1</text>
</g>

<!-- Association TRAVAILLER_POUR -->
<g>
	<line x1="61" y1="633" x2="61" y2="506" stroke="#9970ab" stroke-width="2"/>
	<line x1="202" y1="506" x2="61" y2="506" stroke="#9970ab" stroke-width="2"/>
	<g>
		<path d="M99 481 a14 14 90 0 1 14 14 V506 h-104 V495 a14 14 90 0 1 14 -14" fill="#c2a5cf" stroke="#c2a5cf" stroke-width="0"/>
		<path d="M113 506 v11 a14 14 90 0 1 -14 14 H23 a14 14 90 0 1 -14 -14 V506 H104" fill="#e7d4e8" stroke="#e7d4e8" stroke-width="0"/>
		<rect x="9" y="481" width="104" height="50" fill="none" rx="14" stroke="#9970ab" stroke-width="2"/>
		<line x1="9" y1="506" x2="113" y2="506" stroke="#9970ab" stroke-width="1"/>
		<text x="17" y="498.75" fill="#000000" font-family="Verdana" font-size="12">Travailler pour</text>
	</g>
	<text x="66" y="608" fill="#1b7837" font-family="Verdana" font-size="12">1,N</text>
	<text x="119" y="523" fill="#1b7837" font-family="Verdana" font-size="12">0,N</text>
</g>

<!-- Association GERER -->
<g>
	<line x1="202" y1="506" x2="333" y2="506" stroke="#9970ab" stroke-width="2"/>
	<line x1="467" y1="506" x2="333" y2="506" stroke="#9970ab" stroke-width="2"/>
	<g>
		<path d="M344 481 a14 14 90 0 1 14 14 V506 h-50 V495 a14 14 90 0 1 14 -14" fill="#c2a5cf" stroke="#c2a5cf" stroke-width="0"/>
		<path d="M358 506 v11 a14 14 90 0 1 -14 14 H322 a14 14 90 0 1 -14 -14 V506 H50" fill="#e7d4e8" stroke="#e7d4e8" stroke-width="0"/>
		<rect x="308" y="481" width="50" height="50" fill="none" rx="14" stroke="#9970ab" stroke-width="2"/>
		<line x1="308" y1="506" x2="358" y2="506" stroke="#9970ab" stroke-width="1"/>
		<text x="316" y="498.75" fill="#000000" font-family="Verdana" font-size="12">Gerer</text>
	</g>
	<text x="263" y="523" fill="#1b7837" font-family="Verdana" font-size="12">0,N</text>
	<text x="414" y="523" fill="#1b7837" font-family="Verdana" font-size="12">1,N</text>
</g>

<!-- Association ETRE_LIVREUR -->
<g>
	<line x1="333" y1="633" x2="202" y2="633" stroke="#9970ab" stroke-width="2"/>
	<line x1="202" y1="506" x2="202" y2="633" stroke="#9970ab" stroke-width="2"/>
	<g>
		<path d="M230 608 a14 14 90 0 1 14 14 V633 h-84 V622 a14 14 90 0 1 14 -14" fill="#c2a5cf" stroke="#c2a5cf" stroke-width="0"/>
		<path d="M244 633 v11 a14 14 90 0 1 -14 14 H174 a14 14 90 0 1 -14 -14 V633 H84" fill="#e7d4e8" stroke="#e7d4e8" stroke-width="0"/>
		<rect x="160" y="608" width="84" height="50" fill="none" rx="14" stroke="#9970ab" stroke-width="2"/>
		<line x1="160" y1="633" x2="244" y2="633" stroke="#9970ab" stroke-width="1"/>
		<text x="168" y="625.75" fill="#000000" font-family="Verdana" font-size="12">Etre livreur</text>
	</g>
	<text x="252" y="650" fill="#1b7837" font-family="Verdana" font-size="12">0,N</text>
	<text x="207" y="591" fill="#1b7837" font-family="Verdana" font-size="12">0,N</text>
</g>

<!-- Entity PROMOTION -->
<g>
	<g>
		<rect x="127" y="9" width="150" height="25" fill="#a6dba0" stroke="none" stroke-width="0" opacity="1"/>
		<rect x="127" y="34" width="150" height="127" fill="#d9f0d3" stroke="none" stroke-width="0" opacity="1"/>
		<rect x="127" y="9" width="150" height="152" fill="none" stroke="#5aae61" stroke-width="2" opacity="1"/>
		<line x1="127" y1="34" x2="277" y2="34" stroke="#5aae61" stroke-width="1"/>
	</g>
	<text x="171" y="26.75" fill="#000000" font-family="Verdana" font-size="12">Promotion</text>
	<text x="132" y="51.8" fill="#000000" font-family="Verdana" font-size="12">id_promo</text>
	<line x1="132" y1="54" x2="190" y2="54" stroke="#000000" stroke-width="1"/>
	<text x="132" y="68.8" fill="#000000" font-family="Verdana" font-size="12">titre</text>
	<text x="132" y="85.8" fill="#000000" font-family="Verdana" font-size="12">description</text>
	<text x="132" y="102.8" fill="#000000" font-family="Verdana" font-size="12">date_debut</text>
	<text x="132" y="119.8" fill="#000000" font-family="Verdana" font-size="12">date_fin</text>
	<text x="132" y="136.8" fill="#000000" font-family="Verdana" font-size="12">image_promo</text>
	<text x="132" y="153.8" fill="#000000" font-family="Verdana" font-size="12">pourcentage_reduction</text>
</g>

<!-- Entity ADMINISTRATEUR -->
<g>
	<g>
		<rect x="11" y="194" width="100" height="25" fill="#a6dba0" stroke="none" stroke-width="0" opacity="1"/>
		<rect x="11" y="219" width="100" height="9" fill="#d9f0d3" stroke="none" stroke-width="0" opacity="1"/>
		<rect x="11" y="194" width="100" height="34" fill="none" stroke="#5aae61" stroke-width="2" opacity="1"/>
		<line x1="11" y1="219" x2="111" y2="219" stroke="#5aae61" stroke-width="1"/>
	</g>
	<text x="16" y="211.75" fill="#000000" font-family="Verdana" font-size="12">Administrateur</text>
</g>

<!-- Entity REPONSE -->
<g>
	<g>
		<rect x="543" y="177" width="102" height="25" fill="#a6dba0" stroke="none" stroke-width="0" opacity="1"/>
		<rect x="543" y="202" width="102" height="43" fill="#d9f0d3" stroke="none" stroke-width="0" opacity="1"/>
		<rect x="543" y="177" width="102" height="68" fill="none" stroke="#5aae61" stroke-width="2" opacity="1"/>
		<line x1="543" y1="202" x2="645" y2="202" stroke="#5aae61" stroke-width="1"/>
	</g>
	<text x="568" y="194.75" fill="#000000" font-family="Verdana" font-size="12">Reponse</text>
	<text x="548" y="219.8" fill="#000000" font-family="Verdana" font-size="12">id_reponse</text>
	<line x1="548" y1="222" x2="615" y2="222" stroke="#000000" stroke-width="1"/>
	<text x="548" y="236.8" fill="#000000" font-family="Verdana" font-size="12">statut_reponse</text>
</g>

<!-- Entity MENU -->
<g>
	<g>
		<rect x="142" y="261" width="120" height="25" fill="#a6dba0" stroke="none" stroke-width="0" opacity="1"/>
		<rect x="142" y="286" width="120" height="127" fill="#d9f0d3" stroke="none" stroke-width="0" opacity="1"/>
		<rect x="142" y="261" width="120" height="152" fill="none" stroke="#5aae61" stroke-width="2" opacity="1"/>
		<line x1="142" y1="286" x2="262" y2="286" stroke="#5aae61" stroke-width="1"/>
	</g>
	<text x="186" y="278.75" fill="#000000" font-family="Verdana" font-size="12">Menu</text>
	<text x="147" y="303.8" fill="#000000" font-family="Verdana" font-size="12">id_menu</text>
	<line x1="147" y1="306" x2="200" y2="306" stroke="#000000" stroke-width="1"/>
	<text x="147" y="320.8" fill="#000000" font-family="Verdana" font-size="12">nom_menu</text>
	<text x="147" y="337.8" fill="#000000" font-family="Verdana" font-size="12">description_menu</text>
	<text x="147" y="354.8" fill="#000000" font-family="Verdana" font-size="12">image_menu</text>
	<text x="147" y="371.8" fill="#000000" font-family="Verdana" font-size="12">prix_menu</text>
	<text x="147" y="388.8" fill="#000000" font-family="Verdana" font-size="12">fidelity_point</text>
	<text x="147" y="405.8" fill="#000000" font-family="Verdana" font-size="12">statut_menu</text>
</g>

<!-- Entity RECLAMATION -->
<g>
	<g>
		<rect x="404" y="286" width="126" height="25" fill="#a6dba0" stroke="none" stroke-width="0" opacity="1"/>
		<rect x="404" y="311" width="126" height="77" fill="#d9f0d3" stroke="none" stroke-width="0" opacity="1"/>
		<rect x="404" y="286" width="126" height="102" fill="none" stroke="#5aae61" stroke-width="2" opacity="1"/>
		<line x1="404" y1="311" x2="530" y2="311" stroke="#5aae61" stroke-width="1"/>
	</g>
	<text x="430" y="303.75" fill="#000000" font-family="Verdana" font-size="12">Reclamation</text>
	<text x="409" y="328.8" fill="#000000" font-family="Verdana" font-size="12">id_reclamation</text>
	<line x1="409" y1="331" x2="499" y2="331" stroke="#000000" stroke-width="1"/>
	<text x="409" y="345.8" fill="#000000" font-family="Verdana" font-size="12">message</text>
	<text x="409" y="362.8" fill="#000000" font-family="Verdana" font-size="12">date_soummission</text>
	<text x="409" y="379.8" fill="#000000" font-family="Verdana" font-size="12">statut_reclamation</text>
</g>

<!-- Entity CLIENT -->
<g>
	<g>
		<rect x="649" y="303" width="112" height="25" fill="#a6dba0" stroke="none" stroke-width="0" opacity="1"/>
		<rect x="649" y="328" width="112" height="43" fill="#d9f0d3" stroke="none" stroke-width="0" opacity="1"/>
		<rect x="649" y="303" width="112" height="68" fill="none" stroke="#5aae61" stroke-width="2" opacity="1"/>
		<line x1="649" y1="328" x2="761" y2="328" stroke="#5aae61" stroke-width="1"/>
	</g>
	<text x="688" y="320.75" fill="#000000" font-family="Verdana" font-size="12">Client</text>
	<text x="654" y="345.8" fill="#000000" font-family="Verdana" font-size="12">fidelity</text>
	<line x1="654" y1="348" x2="696" y2="348" stroke="#000000" stroke-width="1"/>
	<text x="654" y="362.8" fill="#000000" font-family="Verdana" font-size="12">code_parrainage</text>
</g>

<!-- Entity RESTAURANT -->
<g>
	<g>
		<rect x="146" y="438" width="112" height="25" fill="#a6dba0" stroke="none" stroke-width="0" opacity="1"/>
		<rect x="146" y="463" width="112" height="111" fill="#d9f0d3" stroke="none" stroke-width="0" opacity="1"/>
		<rect x="146" y="438" width="112" height="136" fill="none" stroke="#5aae61" stroke-width="2" opacity="1"/>
		<line x1="146" y1="463" x2="258" y2="463" stroke="#5aae61" stroke-width="1"/>
	</g>
	<text x="169" y="455.75" fill="#000000" font-family="Verdana" font-size="12">Restaurant</text>
	<text x="151" y="480.8" fill="#000000" font-family="Verdana" font-size="12">id_restaurant</text>
	<line x1="151" y1="483" x2="233" y2="483" stroke="#000000" stroke-width="1"/>
	<text x="151" y="497.8" fill="#000000" font-family="Verdana" font-size="12">nom_restaurant</text>
	<text x="151" y="514.8" fill="#000000" font-family="Verdana" font-size="12">localisation</text>
	<text x="151" y="531.8" fill="#000000" font-family="Verdana" font-size="12">type_localisation</text>
	<text x="151" y="548.8" fill="#000000" font-family="Verdana" font-size="12">logo_restaurant</text>
	<text x="151" y="565.8" fill="#000000" font-family="Verdana" font-size="12">politique</text>
</g>

<!-- Entity GERANT -->
<g>
	<g>
		<rect x="441" y="489" width="52" height="25" fill="#a6dba0" stroke="none" stroke-width="0" opacity="1"/>
		<rect x="441" y="514" width="52" height="9" fill="#d9f0d3" stroke="none" stroke-width="0" opacity="1"/>
		<rect x="441" y="489" width="52" height="34" fill="none" stroke="#5aae61" stroke-width="2" opacity="1"/>
		<line x1="441" y1="514" x2="493" y2="514" stroke="#5aae61" stroke-width="1"/>
	</g>
	<text x="446" y="506.75" fill="#000000" font-family="Verdana" font-size="12">Gerant</text>
</g>

<!-- Entity EMPLOYE -->
<g>
	<g>
		<rect x="29" y="616" width="64" height="25" fill="#a6dba0" stroke="none" stroke-width="0" opacity="1"/>
		<rect x="29" y="641" width="64" height="9" fill="#d9f0d3" stroke="none" stroke-width="0" opacity="1"/>
		<rect x="29" y="616" width="64" height="34" fill="none" stroke="#5aae61" stroke-width="2" opacity="1"/>
		<line x1="29" y1="641" x2="93" y2="641" stroke="#5aae61" stroke-width="1"/>
	</g>
	<text x="35" y="633.75" fill="#000000" font-family="Verdana" font-size="12">Employe</text>
</g>

<!-- Entity LIVREUR -->
<g>
	<g>
		<rect x="279" y="599" width="108" height="25" fill="#a6dba0" stroke="none" stroke-width="0" opacity="1"/>
		<rect x="279" y="624" width="108" height="43" fill="#d9f0d3" stroke="none" stroke-width="0" opacity="1"/>
		<rect x="279" y="599" width="108" height="68" fill="none" stroke="#5aae61" stroke-width="2" opacity="1"/>
		<line x1="279" y1="624" x2="387" y2="624" stroke="#5aae61" stroke-width="1"/>
	</g>
	<text x="312" y="616.75" fill="#000000" font-family="Verdana" font-size="12">Livreur</text>
	<text x="284" y="641.8" fill="#000000" font-family="Verdana" font-size="12">note_livreur</text>
	<line x1="284" y1="644" x2="358" y2="644" stroke="#000000" stroke-width="1"/>
	<text x="284" y="658.8" fill="#000000" font-family="Verdana" font-size="12">code_payement</text>
</g>
</svg>