<?xml version="1.0" encoding="utf-8"?>
<!-- Generated by Mocodo 4.3.2 -->
<svg width="809" height="795" viewBox="0 0 809 795" xmlns="http://www.w3.org/2000/svg">
<rect x="0" y="0" width="809" height="795" fill="#f7f7f7" stroke="none" stroke-width="0"/>

<!-- Inheritance UTILISATEUR_PARENT_#1 -->
<g>
	<line x1="181" y1="701" x2="315" y2="481" stroke="#9970ab" stroke-width="2"/>
	<polygon points="232.77 616 233.89 602.63 236.93 609.17 244.14 608.87" fill="#9970ab" stroke-width="0"/>
	<line x1="472" y1="574" x2="315" y2="481" stroke="#9970ab" stroke-width="2"/>
	<line x1="181" y1="346" x2="315" y2="481" stroke="#9970ab" stroke-width="2"/>
	<line x1="181" y1="481" x2="315" y2="481" stroke="#9970ab" stroke-width="2"/>
	<line x1="181" y1="574" x2="315" y2="481" stroke="#9970ab" stroke-width="2"/>
	<line x1="63" y1="346" x2="315" y2="481" stroke="#9970ab" stroke-width="2"/>
	<g>
		<polygon points="315 455.6 293 493.7 337 493.7" stroke="#9970ab" stroke-width="2" fill="#c2a5cf"/>
		<text x="307" y="486" fill="#000000" font-family="Verdana" font-size="12">XT</text>
	</g>
</g>

<!-- Association ETRE_PRET_POUR -->
<g>
	<line x1="472" y1="68" x2="315" y2="68" stroke="#9970ab" stroke-width="2"/>
	<line x1="181" y1="68" x2="315" y2="68" stroke="#9970ab" stroke-width="2"/>
	<g>
		<path d="M351 43 a14 14 90 0 1 14 14 V68 h-100 V57 a14 14 90 0 1 14 -14" fill="#c2a5cf" stroke="#c2a5cf" stroke-width="0"/>
		<path d="M365 68 v11 a14 14 90 0 1 -14 14 H279 a14 14 90 0 1 -14 -14 V68 H100" fill="#e7d4e8" stroke="#e7d4e8" stroke-width="0"/>
		<rect x="265" y="43" width="100" height="50" fill="none" rx="14" stroke="#9970ab" stroke-width="2"/>
		<line x1="265" y1="68" x2="365" y2="68" stroke="#9970ab" stroke-width="1"/>
		<text x="272" y="60.75" fill="#000000" font-family="Verdana" font-size="12">Etre pret pour</text>
	</g>
	<text x="391" y="60" fill="#1b7837" font-family="Verdana" font-size="12">0,N</text>
	<text x="238" y="85" fill="#1b7837" font-family="Verdana" font-size="12">1,1</text>
</g>

<!-- Association LIVRER -->
<g>
	<line x1="63" y1="346" x2="63" y2="220" stroke="#9970ab" stroke-width="2"/>
	<line x1="181" y1="68" x2="63" y2="220" stroke="#9970ab" stroke-width="2"/>
	<g>
		<path d="M74 195 a14 14 90 0 1 14 14 V220 h-50 V209 a14 14 90 0 1 14 -14" fill="#c2a5cf" stroke="#c2a5cf" stroke-width="0"/>
		<path d="M88 220 v11 a14 14 90 0 1 -14 14 H52 a14 14 90 0 1 -14 -14 V220 H50" fill="#e7d4e8" stroke="#e7d4e8" stroke-width="0"/>
		<rect x="38" y="195" width="50" height="50" fill="none" rx="14" stroke="#9970ab" stroke-width="2"/>
		<line x1="38" y1="220" x2="88" y2="220" stroke="#9970ab" stroke-width="1"/>
		<text x="46" y="212.75" fill="#000000" font-family="Verdana" font-size="12">Livrer</text>
	</g>
	<text x="68" y="304" fill="#1b7837" font-family="Verdana" font-size="12">0,N</text>
	<text x="134.38" y="144" fill="#1b7837" font-family="Verdana" font-size="12">1,1</text>
</g>

<!-- Association VALIDER -->
<g>
	<line x1="472" y1="68" x2="181" y2="220" stroke="#9970ab" stroke-width="2"/>
	<line x1="181" y1="346" x2="181" y2="220" stroke="#9970ab" stroke-width="2"/>
	<g>
		<path d="M196 195 a14 14 90 0 1 14 14 V220 h-58 V209 a14 14 90 0 1 14 -14" fill="#c2a5cf" stroke="#c2a5cf" stroke-width="0"/>
		<path d="M210 220 v11 a14 14 90 0 1 -14 14 H166 a14 14 90 0 1 -14 -14 V220 H58" fill="#e7d4e8" stroke="#e7d4e8" stroke-width="0"/>
		<rect x="152" y="195" width="58" height="50" fill="none" rx="14" stroke="#9970ab" stroke-width="2"/>
		<line x1="152" y1="220" x2="210" y2="220" stroke="#9970ab" stroke-width="1"/>
		<text x="160" y="212.75" fill="#000000" font-family="Verdana" font-size="12">Valider</text>
	</g>
	<text x="392" y="92.28" fill="#1b7837" font-family="Verdana" font-size="12">1,1</text>
	<text x="186" y="321" fill="#1b7837" font-family="Verdana" font-size="12">0,N</text>
</g>

<!-- Association APPARTENIR_A -->
<g>
	<line x1="472" y1="346" x2="472" y2="220" stroke="#9970ab" stroke-width="2"/>
	<line x1="315" y1="220" x2="472" y2="220" stroke="#9970ab" stroke-width="2"/>
	<g>
		<path d="M503 195 a14 14 90 0 1 14 14 V220 h-90 V209 a14 14 90 0 1 14 -14" fill="#c2a5cf" stroke="#c2a5cf" stroke-width="0"/>
		<path d="M517 220 v11 a14 14 90 0 1 -14 14 H441 a14 14 90 0 1 -14 -14 V220 H90" fill="#e7d4e8" stroke="#e7d4e8" stroke-width="0"/>
		<rect x="427" y="195" width="90" height="50" fill="none" rx="14" stroke="#9970ab" stroke-width="2"/>
		<line x1="427" y1="220" x2="517" y2="220" stroke="#9970ab" stroke-width="1"/>
		<text x="434" y="212.75" fill="#000000" font-family="Verdana" font-size="12">Appartenir à</text>
	</g>
	<text x="477" y="262" fill="#1b7837" font-family="Verdana" font-size="12">1,1</text>
	<text x="376" y="237" fill="#1b7837" font-family="Verdana" font-size="12">0,N</text>
</g>

<!-- Association DEVENIR -->
<g>
	<line x1="731" y1="346" x2="731" y2="220" stroke="#9970ab" stroke-width="2"/>
	<line x1="472" y1="68" x2="731" y2="220" stroke="#9970ab" stroke-width="2"/>
	<g>
		<path d="M748 195 a14 14 90 0 1 14 14 V220 h-62 V209 a14 14 90 0 1 14 -14" fill="#c2a5cf" stroke="#c2a5cf" stroke-width="0"/>
		<path d="M762 220 v11 a14 14 90 0 1 -14 14 H714 a14 14 90 0 1 -14 -14 V220 H62" fill="#e7d4e8" stroke="#e7d4e8" stroke-width="0"/>
		<rect x="700" y="195" width="62" height="50" fill="none" rx="14" stroke="#9970ab" stroke-width="2"/>
		<line x1="700" y1="220" x2="762" y2="220" stroke="#9970ab" stroke-width="1"/>
		<text x="707" y="212.75" fill="#000000" font-family="Verdana" font-size="12">Devenir</text>
	</g>
	<text x="736" y="270" fill="#1b7837" font-family="Verdana" font-size="12">0,N</text>
	<text x="531" y="96.24" fill="#1b7837" font-family="Verdana" font-size="12">1,1</text>
</g>

<!-- Association CHOISIR_MENU_JOUR -->
<g>
	<line x1="472" y1="346" x2="315" y2="346" stroke="#9970ab" stroke-width="2"/>
	<line x1="181" y1="346" x2="315" y2="346" stroke="#9970ab" stroke-width="2"/>
	<g>
		<path d="M366 321 a14 14 90 0 1 14 14 V346 h-130 V335 a14 14 90 0 1 14 -14" fill="#c2a5cf" stroke="#c2a5cf" stroke-width="0"/>
		<path d="M380 346 v11 a14 14 90 0 1 -14 14 H264 a14 14 90 0 1 -14 -14 V346 H130" fill="#e7d4e8" stroke="#e7d4e8" stroke-width="0"/>
		<rect x="250" y="321" width="130" height="50" fill="none" rx="14" stroke="#9970ab" stroke-width="2"/>
		<line x1="250" y1="346" x2="380" y2="346" stroke="#9970ab" stroke-width="1"/>
		<text x="258" y="338.75" fill="#000000" font-family="Verdana" font-size="12">Choisir_Menu_Jour</text>
		<text x="257" y="363.8" fill="#000000" font-family="Verdana" font-size="12">date_jour</text>
	</g>
	<text x="385" y="363" fill="#1b7837" font-family="Verdana" font-size="12">0,N</text>
	<text x="218" y="363" fill="#1b7837" font-family="Verdana" font-size="12">0,N</text>
</g>

<!-- Association CONTENIR -->
<g>
	<line x1="731" y1="346" x2="597" y2="346" stroke="#9970ab" stroke-width="2"/>
	<line x1="472" y1="346" x2="597" y2="346" stroke="#9970ab" stroke-width="2"/>
	<g>
		<path d="M616 321 a14 14 90 0 1 14 14 V346 h-66 V335 a14 14 90 0 1 14 -14" fill="#c2a5cf" stroke="#c2a5cf" stroke-width="0"/>
		<path d="M630 346 v11 a14 14 90 0 1 -14 14 H578 a14 14 90 0 1 -14 -14 V346 H66" fill="#e7d4e8" stroke="#e7d4e8" stroke-width="0"/>
		<rect x="564" y="321" width="66" height="50" fill="none" rx="14" stroke="#9970ab" stroke-width="2"/>
		<line x1="564" y1="346" x2="630" y2="346" stroke="#9970ab" stroke-width="1"/>
		<text x="571" y="338.75" fill="#000000" font-family="Verdana" font-size="12">Contenir</text>
		<text x="571" y="363.8" fill="#000000" font-family="Verdana" font-size="12">quantite</text>
	</g>
	<text x="635" y="338" fill="#1b7837" font-family="Verdana" font-size="12">1,N</text>
	<text x="537" y="363" fill="#1b7837" font-family="Verdana" font-size="12">0,N</text>
</g>

<!-- Association NOTER -->
<g>
	<line x1="472" y1="346" x2="472" y2="481" stroke="#9970ab" stroke-width="2"/>
	<line x1="472" y1="574" x2="472" y2="481" stroke="#9970ab" stroke-width="2"/>
	<g>
		<path d="M505 447 a14 14 90 0 1 14 14 V472 h-94 V461 a14 14 90 0 1 14 -14" fill="#c2a5cf" stroke="#c2a5cf" stroke-width="0"/>
		<path d="M519 472 v29 a14 14 90 0 1 -14 14 H439 a14 14 90 0 1 -14 -14 V472 H94" fill="#e7d4e8" stroke="#e7d4e8" stroke-width="0"/>
		<rect x="425" y="447" width="94" height="68" fill="none" rx="14" stroke="#9970ab" stroke-width="2"/>
		<line x1="425" y1="472" x2="519" y2="472" stroke="#9970ab" stroke-width="1"/>
		<text x="455" y="464.75" fill="#000000" font-family="Verdana" font-size="12">Noter</text>
		<text x="432" y="489.8" fill="#000000" font-family="Verdana" font-size="12">note</text>
		<text x="432" y="506.8" fill="#000000" font-family="Verdana" font-size="12">commentaire</text>
	</g>
	<text x="477" y="439" fill="#1b7837" font-family="Verdana" font-size="12">0,N</text>
	<text x="445" y="532" fill="#1b7837" font-family="Verdana" font-size="12">0,N</text>
</g>

<!-- Association FAIRE -->
<g>
	<line x1="472" y1="574" x2="597" y2="481" stroke="#9970ab" stroke-width="2"/>
	<line x1="731" y1="346" x2="597" y2="481" stroke="#9970ab" stroke-width="2"/>
	<g>
		<path d="M606 456 a14 14 90 0 1 14 14 V481 h-46 V470 a14 14 90 0 1 14 -14" fill="#c2a5cf" stroke="#c2a5cf" stroke-width="0"/>
		<path d="M620 481 v11 a14 14 90 0 1 -14 14 H588 a14 14 90 0 1 -14 -14 V481 H46" fill="#e7d4e8" stroke="#e7d4e8" stroke-width="0"/>
		<rect x="574" y="456" width="46" height="50" fill="none" rx="14" stroke="#9970ab" stroke-width="2"/>
		<line x1="574" y1="481" x2="620" y2="481" stroke="#9970ab" stroke-width="1"/>
		<text x="582" y="473.75" fill="#000000" font-family="Verdana" font-size="12">Faire</text>
	</g>
	<text x="496.32" y="532" fill="#1b7837" font-family="Verdana" font-size="12">0,N</text>
	<text x="661.47" y="431" fill="#1b7837" font-family="Verdana" font-size="12">1,1</text>
</g>

<!-- Association PARRAINER -->
<g>
	<path d="M472 574 C429 607.33 376.67 607.33 315 574" fill="none" stroke="#9970ab" stroke-width="2"/>
	<path d="M472 574 C428.33 540.67 376 540.67 315 574" fill="none" stroke="#9970ab" stroke-width="2"/>
	<g>
		<path d="M336 549 a14 14 90 0 1 14 14 V574 h-70 V563 a14 14 90 0 1 14 -14" fill="#c2a5cf" stroke="#c2a5cf" stroke-width="0"/>
		<path d="M350 574 v11 a14 14 90 0 1 -14 14 H294 a14 14 90 0 1 -14 -14 V574 H70" fill="#e7d4e8" stroke="#e7d4e8" stroke-width="0"/>
		<rect x="280" y="549" width="70" height="50" fill="none" rx="14" stroke="#9970ab" stroke-width="2"/>
		<line x1="280" y1="574" x2="350" y2="574" stroke="#9970ab" stroke-width="1"/>
		<text x="287" y="566.75" fill="#000000" font-family="Verdana" font-size="12">parrainer</text>
	</g>
	<text x="390" y="590" fill="#1b7837" font-family="Verdana" font-size="12">1,1</text>
	<text x="389" y="567" fill="#1b7837" font-family="Verdana" font-size="12">0,N</text>
</g>

<!-- Entity LIVRAISON -->
<g>
	<g>
		<rect x="129" y="9" width="104" height="25" fill="#a6dba0" stroke="none" stroke-width="0" opacity="1"/>
		<rect x="129" y="34" width="104" height="93" fill="#d9f0d3" stroke="none" stroke-width="0" opacity="1"/>
		<rect x="129" y="9" width="104" height="118" fill="none" stroke="#5aae61" stroke-width="2" opacity="1"/>
		<line x1="129" y1="34" x2="233" y2="34" stroke="#5aae61" stroke-width="1"/>
	</g>
	<text x="154" y="26.75" fill="#000000" font-family="Verdana" font-size="12">Livraison</text>
	<text x="134" y="51.8" fill="#000000" font-family="Verdana" font-size="12">id_livraison</text>
	<line x1="134" y1="54" x2="204" y2="54" stroke="#000000" stroke-width="1"/>
	<text x="134" y="68.8" fill="#000000" font-family="Verdana" font-size="12">date_livraison</text>
	<text x="134" y="85.8" fill="#000000" font-family="Verdana" font-size="12">statut_livraison</text>
	<text x="134" y="102.8" fill="#000000" font-family="Verdana" font-size="12">commentaires</text>
	<text x="134" y="119.8" fill="#000000" font-family="Verdana" font-size="12">note_livraison</text>
</g>

<!-- Entity BON_COMMANDE -->
<g>
	<g>
		<rect x="418" y="34" width="108" height="25" fill="#a6dba0" stroke="none" stroke-width="0" opacity="1"/>
		<rect x="418" y="59" width="108" height="43" fill="#d9f0d3" stroke="none" stroke-width="0" opacity="1"/>
		<rect x="418" y="34" width="108" height="68" fill="none" stroke="#5aae61" stroke-width="2" opacity="1"/>
		<line x1="418" y1="59" x2="526" y2="59" stroke="#5aae61" stroke-width="1"/>
	</g>
	<text x="423" y="51.75" fill="#000000" font-family="Verdana" font-size="12">Bon_commande</text>
	<text x="423" y="76.8" fill="#000000" font-family="Verdana" font-size="12">id_bon</text>
	<line x1="423" y1="79" x2="465" y2="79" stroke="#000000" stroke-width="1"/>
	<text x="423" y="93.8" fill="#000000" font-family="Verdana" font-size="12">statut_bon</text>
</g>

<!-- Entity RESTAURANT -->
<g>
	<g>
		<rect x="259" y="152" width="112" height="25" fill="#a6dba0" stroke="none" stroke-width="0" opacity="1"/>
		<rect x="259" y="177" width="112" height="111" fill="#d9f0d3" stroke="none" stroke-width="0" opacity="1"/>
		<rect x="259" y="152" width="112" height="136" fill="none" stroke="#5aae61" stroke-width="2" opacity="1"/>
		<line x1="259" y1="177" x2="371" y2="177" stroke="#5aae61" stroke-width="1"/>
	</g>
	<text x="282" y="169.75" fill="#000000" font-family="Verdana" font-size="12">Restaurant</text>
	<text x="264" y="194.8" fill="#000000" font-family="Verdana" font-size="12">id_restaurant</text>
	<line x1="264" y1="197" x2="346" y2="197" stroke="#000000" stroke-width="1"/>
	<text x="264" y="211.8" fill="#000000" font-family="Verdana" font-size="12">nom_restaurant</text>
	<text x="264" y="228.8" fill="#000000" font-family="Verdana" font-size="12">localisation</text>
	<text x="264" y="245.8" fill="#000000" font-family="Verdana" font-size="12">type_localisation</text>
	<text x="264" y="262.8" fill="#000000" font-family="Verdana" font-size="12">logo_restaurant</text>
	<text x="264" y="279.8" fill="#000000" font-family="Verdana" font-size="12">politique</text>
</g>

<!-- Entity LIVREUR -->
<g>
	<g>
		<rect x="9" y="312" width="108" height="25" fill="#a6dba0" stroke="none" stroke-width="0" opacity="1"/>
		<rect x="9" y="337" width="108" height="43" fill="#d9f0d3" stroke="none" stroke-width="0" opacity="1"/>
		<rect x="9" y="312" width="108" height="68" fill="none" stroke="#5aae61" stroke-width="2" opacity="1"/>
		<line x1="9" y1="337" x2="117" y2="337" stroke="#5aae61" stroke-width="1"/>
	</g>
	<text x="42" y="329.75" fill="#000000" font-family="Verdana" font-size="12">Livreur</text>
	<text x="14" y="354.8" fill="#000000" font-family="Verdana" font-size="12">note_livreur</text>
	<text x="14" y="371.8" fill="#000000" font-family="Verdana" font-size="12">code_payement</text>
</g>

<!-- Entity EMPLOYE -->
<g>
	<g>
		<rect x="149" y="329" width="64" height="25" fill="#a6dba0" stroke="none" stroke-width="0" opacity="1"/>
		<rect x="149" y="354" width="64" height="9" fill="#d9f0d3" stroke="none" stroke-width="0" opacity="1"/>
		<rect x="149" y="329" width="64" height="34" fill="none" stroke="#5aae61" stroke-width="2" opacity="1"/>
		<line x1="149" y1="354" x2="213" y2="354" stroke="#5aae61" stroke-width="1"/>
	</g>
	<text x="155" y="346.75" fill="#000000" font-family="Verdana" font-size="12">Employe</text>
</g>

<!-- Entity MENU -->
<g>
	<g>
		<rect x="412" y="270" width="120" height="25" fill="#a6dba0" stroke="none" stroke-width="0" opacity="1"/>
		<rect x="412" y="295" width="120" height="127" fill="#d9f0d3" stroke="none" stroke-width="0" opacity="1"/>
		<rect x="412" y="270" width="120" height="152" fill="none" stroke="#5aae61" stroke-width="2" opacity="1"/>
		<line x1="412" y1="295" x2="532" y2="295" stroke="#5aae61" stroke-width="1"/>
	</g>
	<text x="456" y="287.75" fill="#000000" font-family="Verdana" font-size="12">Menu</text>
	<text x="417" y="312.8" fill="#000000" font-family="Verdana" font-size="12">id_menu</text>
	<line x1="417" y1="315" x2="470" y2="315" stroke="#000000" stroke-width="1"/>
	<text x="417" y="329.8" fill="#000000" font-family="Verdana" font-size="12">nom_menu</text>
	<text x="417" y="346.8" fill="#000000" font-family="Verdana" font-size="12">description_menu</text>
	<text x="417" y="363.8" fill="#000000" font-family="Verdana" font-size="12">image_menu</text>
	<text x="417" y="380.8" fill="#000000" font-family="Verdana" font-size="12">prix_menu</text>
	<text x="417" y="397.8" fill="#000000" font-family="Verdana" font-size="12">fidelity_point</text>
	<text x="417" y="414.8" fill="#000000" font-family="Verdana" font-size="12">statut_menu</text>
</g>

<!-- Entity COMMANDE -->
<g>
	<g>
		<rect x="662" y="278" width="138" height="25" fill="#a6dba0" stroke="none" stroke-width="0" opacity="1"/>
		<rect x="662" y="303" width="138" height="111" fill="#d9f0d3" stroke="none" stroke-width="0" opacity="1"/>
		<rect x="662" y="278" width="138" height="136" fill="none" stroke="#5aae61" stroke-width="2" opacity="1"/>
		<line x1="662" y1="303" x2="800" y2="303" stroke="#5aae61" stroke-width="1"/>
	</g>
	<text x="697" y="295.75" fill="#000000" font-family="Verdana" font-size="12">Commande</text>
	<text x="667" y="320.8" fill="#000000" font-family="Verdana" font-size="12">id_commande</text>
	<line x1="667" y1="323" x2="753" y2="323" stroke="#000000" stroke-width="1"/>
	<text x="667" y="337.8" fill="#000000" font-family="Verdana" font-size="12">date_commande</text>
	<text x="667" y="354.8" fill="#000000" font-family="Verdana" font-size="12">date_heure_livraison</text>
	<text x="667" y="371.8" fill="#000000" font-family="Verdana" font-size="12">localisation_client</text>
	<text x="667" y="388.8" fill="#000000" font-family="Verdana" font-size="12">type_localisation</text>
	<text x="667" y="405.8" fill="#000000" font-family="Verdana" font-size="12">statut_commande</text>
</g>

<!-- Entity GERANT -->
<g>
	<g>
		<rect x="155" y="464" width="52" height="25" fill="#a6dba0" stroke="none" stroke-width="0" opacity="1"/>
		<rect x="155" y="489" width="52" height="9" fill="#d9f0d3" stroke="none" stroke-width="0" opacity="1"/>
		<rect x="155" y="464" width="52" height="34" fill="none" stroke="#5aae61" stroke-width="2" opacity="1"/>
		<line x1="155" y1="489" x2="207" y2="489" stroke="#5aae61" stroke-width="1"/>
	</g>
	<text x="160" y="481.75" fill="#000000" font-family="Verdana" font-size="12">Gerant</text>
</g>

<!-- Entity ADMINISTRATEUR -->
<g>
	<g>
		<rect x="131" y="557" width="100" height="25" fill="#a6dba0" stroke="none" stroke-width="0" opacity="1"/>
		<rect x="131" y="582" width="100" height="9" fill="#d9f0d3" stroke="none" stroke-width="0" opacity="1"/>
		<rect x="131" y="557" width="100" height="34" fill="none" stroke="#5aae61" stroke-width="2" opacity="1"/>
		<line x1="131" y1="582" x2="231" y2="582" stroke="#5aae61" stroke-width="1"/>
	</g>
	<text x="136" y="574.75" fill="#000000" font-family="Verdana" font-size="12">Administrateur</text>
</g>

<!-- Entity CLIENT -->
<g>
	<g>
		<rect x="416" y="540" width="112" height="25" fill="#a6dba0" stroke="none" stroke-width="0" opacity="1"/>
		<rect x="416" y="565" width="112" height="43" fill="#d9f0d3" stroke="none" stroke-width="0" opacity="1"/>
		<rect x="416" y="540" width="112" height="68" fill="none" stroke="#5aae61" stroke-width="2" opacity="1"/>
		<line x1="416" y1="565" x2="528" y2="565" stroke="#5aae61" stroke-width="1"/>
	</g>
	<text x="455" y="557.75" fill="#000000" font-family="Verdana" font-size="12">Client</text>
	<text x="421" y="582.8" fill="#000000" font-family="Verdana" font-size="12">fidelity</text>
	<text x="421" y="599.8" fill="#000000" font-family="Verdana" font-size="12">code_parrainage</text>
</g>

<!-- Entity UTILISATEUR -->
<g>
	<g>
		<rect x="127" y="616" width="108" height="25" fill="#a6dba0" stroke="none" stroke-width="0" opacity="1"/>
		<rect x="127" y="641" width="108" height="145" fill="#d9f0d3" stroke="none" stroke-width="0" opacity="1"/>
		<rect x="127" y="616" width="108" height="170" fill="none" stroke="#5aae61" stroke-width="2" opacity="1"/>
		<line x1="127" y1="641" x2="235" y2="641" stroke="#5aae61" stroke-width="1"/>
	</g>
	<text x="150" y="633.75" fill="#000000" font-family="Verdana" font-size="12">Utilisateur</text>
	<text x="132" y="658.8" fill="#000000" font-family="Verdana" font-size="12">id_user</text>
	<line x1="132" y1="661" x2="178" y2="661" stroke="#000000" stroke-width="1"/>
	<text x="132" y="675.8" fill="#000000" font-family="Verdana" font-size="12">nom_user</text>
	<text x="132" y="692.8" fill="#000000" font-family="Verdana" font-size="12">email_user</text>
	<text x="132" y="709.8" fill="#000000" font-family="Verdana" font-size="12">password_user</text>
	<text x="132" y="726.8" fill="#000000" font-family="Verdana" font-size="12">num_user</text>
	<text x="132" y="743.8" fill="#000000" font-family="Verdana" font-size="12">date_inscription</text>
	<text x="132" y="760.8" fill="#000000" font-family="Verdana" font-size="12">last_connexion</text>
	<text x="132" y="777.8" fill="#000000" font-family="Verdana" font-size="12">statut_account</text>
</g>
</svg>